<svg xmlns="http://www.w3.org/2000/svg" viewBox="0 0 512 512">
  <!-- Hrdle - a scanner mid-sweep.
       Geometry: 11 segments / lamp at 0.33 (left of center) / band folded by
       S*0.028 (a shallow V dipping at the center) / slit 0.78 x 0.155S /
       glow rgb(255, 39, 24).
       icon-192.png and icon-512.png draw the same numbers on a Canvas, and the
       hairline, grain and glass reflection live only there: at 16px they
       collapse into mud rather than texture. -->
  <defs>
    <linearGradient id="case" x1="0" y1="0" x2="0" y2="1">
      <stop offset="0" stop-color="#26292c"/>
      <stop offset="0.5" stop-color="#141618"/>
      <stop offset="1" stop-color="#08090a"/>
    </linearGradient>
    <radialGradient id="spill">
      <stop offset="0" stop-color="rgb(255,39,24)" stop-opacity="0.42"/>
      <stop offset="1" stop-color="rgb(255,39,24)" stop-opacity="0"/>
    </radialGradient>
    <linearGradient id="frame" x1="0" y1="0" x2="0" y2="1">
      <stop offset="0" stop-color="#ffffff" stop-opacity="0.34"/>
      <stop offset="0.5" stop-color="#ffffff" stop-opacity="0.05"/>
      <stop offset="1" stop-color="#000000" stop-opacity="0.6"/>
    </linearGradient>
    <clipPath id="slit">
      <path d="M56.32 201.98L256 216.32L455.68 201.98L455.68 281.34L256 295.68L56.32 281.34Z"/>
    </clipPath>
  </defs>

  <rect width="512" height="512" rx="112.64" fill="url(#case)"/>

  <!-- The light spills onto the panel. Spreading wider than it is tall is what makes the mark -->
  <ellipse cx="188.11" cy="251.13" rx="184.32" ry="66.56" fill="url(#spill)"/>

  <!-- The recess behind the band -->
  <path d="M56.32 201.98L256 216.32L455.68 201.98L455.68 281.34L256 295.68L56.32 281.34Z" fill="#160607"/>

  <!-- Lamps. Only one or two blow out to white at the center -->
  <g clip-path="url(#slit)">
    <path d="M58.86 202.17L90.08 204.41L90.08 283.77L58.86 281.53Z" fill="rgb(255,39,24)" opacity="0.06"/>
    <path d="M95.17 204.77L126.39 207.01L126.39 286.37L95.17 284.13Z" fill="rgb(255,39,24)" opacity="0.25"/>
    <path d="M131.47 207.38L162.69 209.62L162.69 288.98L131.47 286.74Z" fill="rgb(255,39,24)" opacity="0.65"/>
    <path d="M131.47 215.32L162.69 217.56L162.69 281.05L131.47 278.8Z" fill="rgb(255,232,222)" opacity="0.25"/>
    <path d="M167.78 209.99L199 212.23L199 291.59L167.78 289.35Z" fill="rgb(255,39,24)" opacity="0.96"/>
    <path d="M167.78 217.92L199 220.16L199 283.65L167.78 281.41Z" fill="rgb(255,232,222)" opacity="0.91"/>
    <path d="M204.08 212.59L235.31 214.83L235.31 294.19L204.08 291.95Z" fill="rgb(255,39,24)" opacity="0.76"/>
    <path d="M204.08 220.53L235.31 222.77L235.31 286.26L204.08 284.02Z" fill="rgb(255,232,222)" opacity="0.49"/>
    <path d="M240.39 215.2L271.61 215.2L271.61 294.56L240.39 294.56Z" fill="rgb(255,39,24)" opacity="0.33"/>
    <path d="M276.69 214.83L307.92 212.59L307.92 291.95L276.69 294.19Z" fill="rgb(255,39,24)" opacity="0.09"/>
  </g>

  <!-- Frame: light on top, shadow below -->
  <path d="M43.01 188.67L256 203.01L468.99 188.67L468.99 294.66L256 308.99L43.01 294.66Z"
        fill="none" stroke="url(#frame)" stroke-width="3.58" stroke-linejoin="round"/>
</svg>

